<svg width="1473" height="687" viewBox="0 0 1473 687" fill="none" xmlns="http://www.w3.org/2000/svg">
<path d="M302 129C302 104.147 322.147 84 347 84H452C476.853 84 497 104.147 497 129V234C497 258.853 476.853 279 452 279H347C322.147 279 302 258.853 302 234V129Z" stroke="black" stroke-width="29"/>
<path d="M343.272 157.802C335.661 151.247 342.882 139.039 352.293 142.551L428.491 170.989C432.647 172.54 435.053 176.889 434.159 181.234L430.93 196.934C430.5 199.022 429.344 200.89 427.666 202.204L416.29 211.119C412.907 213.77 408.121 213.659 404.865 210.854L343.272 157.802Z" fill="black" stroke="black" stroke-width="13"/>
<path d="M20.1333 331.201C20.1333 296.738 47.1753 268.801 80.5333 268.801H221.467C254.825 268.801 281.867 296.738 281.867 331.201V476.801C281.867 511.264 254.825 539.201 221.467 539.201H80.5333C47.1753 539.201 20.1333 511.264 20.1333 476.801V331.201Z" stroke="black" stroke-width="29"/>
<path d="M138.231 322.346C140.509 308.618 159.546 308.478 162.013 322.171L181.989 433.047C183.079 439.096 179.741 445.061 174.124 447.104L153.829 454.481C151.132 455.463 148.183 455.421 145.509 454.367L127.387 447.215C121.998 445.089 118.817 439.322 119.792 433.448L138.231 322.346Z" fill="black" stroke="black" stroke-width="13"/>
<path d="M326.267 398.068C326.267 354.548 361.547 319.268 405.067 319.268H588.933C632.454 319.268 667.733 354.548 667.733 398.068V581.934C667.733 625.455 632.454 660.734 588.933 660.734H405.067C361.547 660.734 326.267 625.455 326.267 581.934V398.068Z" stroke="black" stroke-width="29"/>
<path d="M542.415 377.884C553.657 364.356 575.254 376.621 569.395 393.206L521.957 527.495C519.369 534.821 511.831 539.167 504.195 537.737L476.607 532.566C472.939 531.88 469.634 529.911 467.278 527.014L451.32 507.371C446.573 501.531 446.62 493.148 451.43 487.36L542.415 377.884Z" fill="black" stroke="black" stroke-width="13"/>
<path d="M624.208 94.272V119.616H592.24V276H559.12V119.616H527.44V94.272H624.208ZM637.083 111.552V83.04H671.355V111.552H637.083ZM670.491 276H637.947V134.592H670.491V276ZM806.202 134.592H815.13C834.714 134.592 844.506 144.096 844.506 163.104V276H811.962V167.712C811.962 164.64 811.386 162.624 810.234 161.664C809.082 160.512 806.97 159.936 803.898 159.936H795.258C789.306 159.936 786.33 163.104 786.33 169.44V276H753.498V167.712C753.498 164.64 752.922 162.624 751.77 161.664C750.618 160.512 748.506 159.936 745.434 159.936H736.794C730.842 159.936 727.866 163.104 727.866 169.44V276H695.322V134.592H727.578V147.552C730.266 138.912 737.082 134.592 748.026 134.592H756.666C770.874 134.592 779.898 139.392 783.738 148.992C786.426 139.392 793.914 134.592 806.202 134.592ZM897.68 134.592H928.208C948.944 134.592 959.312 144.096 959.312 163.104V214.656H897.968V243.744C897.968 246.816 898.448 248.928 899.408 250.08C900.56 251.04 902.768 251.52 906.032 251.52H919.28C922.352 251.52 924.464 251.04 925.616 250.08C926.768 248.928 927.344 246.816 927.344 243.744V233.088H959.024V247.488C959.024 266.496 948.56 276 927.632 276H897.68C876.752 276 866.288 266.496 866.288 247.488V163.104C866.288 144.096 876.752 134.592 897.68 134.592ZM897.968 193.632H927.92V166.56C927.92 163.488 927.344 161.472 926.192 160.512C925.04 159.36 922.928 158.784 919.856 158.784H906.032C902.96 158.784 900.848 159.36 899.696 160.512C898.544 161.472 897.968 163.488 897.968 166.56V193.632Z" fill="black"/>
<path d="M782.2 565V511C782.2 506.733 781.4 503.933 779.8 502.6C778.2 501 775.267 500.2 771 500.2H738.6C711.133 500.2 697.4 486.867 697.4 460.2V398.2C697.4 371.8 711.8 358.6 740.6 358.6H784.6C813.4 358.6 827.8 371.8 827.8 398.2V433.4H781.4V404.6C781.4 400.333 780.6 397.533 779 396.2C777.4 394.6 774.467 393.8 770.2 393.8H755C750.467 393.8 747.4 394.6 745.8 396.2C744.2 397.533 743.4 400.333 743.4 404.6V455.4C743.4 459.667 744.2 462.6 745.8 464.2C747.4 465.533 750.467 466.2 755 466.2H786.6C814.6 466.2 828.6 479.267 828.6 505.4V571.4C828.6 597.8 814.067 611 785 611H741.8C712.733 611 698.2 597.8 698.2 571.4V536.6H744.2V565C744.2 569.267 745 572.2 746.6 573.8C748.2 575.133 751.267 575.8 755.8 575.8H771C775.267 575.8 778.2 575.133 779.8 573.8C781.4 572.2 782.2 569.267 782.2 565ZM933.166 414.6H945.166C972.632 414.6 986.366 427.8 986.366 454.2V571.4C986.366 597.8 972.632 611 945.166 611H933.166C918.499 611 909.166 605.4 905.166 594.2V665.4H859.966V414.6H904.766V432.6C908.499 420.6 917.966 414.6 933.166 414.6ZM940.766 565V460.6C940.766 456.333 939.966 453.533 938.366 452.2C936.766 450.6 933.832 449.8 929.566 449.8H917.566C909.299 449.8 905.166 454.2 905.166 463V562.6C905.166 571.4 909.299 575.8 917.566 575.8H929.566C933.832 575.8 936.766 575.133 938.366 573.8C939.966 572.2 940.766 569.267 940.766 565ZM1096.19 414.6H1140.99V611H1095.39V594.2C1091.39 605.4 1082.19 611 1067.79 611H1055.39C1028.19 611 1014.59 597.8 1014.59 571.4V454.2C1014.59 427.8 1028.19 414.6 1055.39 414.6H1067.79C1083.52 414.6 1092.99 421 1096.19 433.8V414.6ZM1070.99 575.8H1082.99C1091.25 575.8 1095.39 571.4 1095.39 562.6V463C1095.39 454.2 1091.25 449.8 1082.99 449.8H1070.99C1066.72 449.8 1063.79 450.6 1062.19 452.2C1060.59 453.533 1059.79 456.333 1059.79 460.6V565C1059.79 569.267 1060.59 572.2 1062.19 573.8C1063.79 575.133 1066.72 575.8 1070.99 575.8ZM1298.41 480.6H1254.01V460.6C1254.01 456.333 1253.21 453.533 1251.61 452.2C1250.01 450.6 1247.08 449.8 1242.81 449.8H1228.41C1224.14 449.8 1221.21 450.6 1219.61 452.2C1218.01 453.533 1217.21 456.333 1217.21 460.6V565C1217.21 569.267 1218.01 572.2 1219.61 573.8C1221.21 575.133 1224.14 575.8 1228.41 575.8H1242.81C1247.08 575.8 1250.01 575.133 1251.61 573.8C1253.21 572.2 1254.01 569.267 1254.01 565V544.6H1298.41V571.4C1298.41 597.8 1283.88 611 1254.81 611H1215.61C1186.54 611 1172.01 597.8 1172.01 571.4V454.2C1172.01 427.8 1186.54 414.6 1215.61 414.6H1254.81C1283.88 414.6 1298.41 427.8 1298.41 454.2V480.6ZM1368.36 414.6H1410.76C1439.56 414.6 1453.96 427.8 1453.96 454.2V525.8H1368.76V566.2C1368.76 570.467 1369.43 573.4 1370.76 575C1372.36 576.333 1375.43 577 1379.96 577H1398.36C1402.63 577 1405.56 576.333 1407.16 575C1408.76 573.4 1409.56 570.467 1409.56 566.2V551.4H1453.56V571.4C1453.56 597.8 1439.03 611 1409.96 611H1368.36C1339.3 611 1324.76 597.8 1324.76 571.4V454.2C1324.76 427.8 1339.3 414.6 1368.36 414.6ZM1368.76 496.6H1410.36V459C1410.36 454.733 1409.56 451.933 1407.96 450.6C1406.36 449 1403.43 448.2 1399.16 448.2H1379.96C1375.7 448.2 1372.76 449 1371.16 450.6C1369.56 451.933 1368.76 454.733 1368.76 459V496.6Z" fill="black"/>
</svg>
