<svg width="1116" height="695" viewBox="0 0 1116 695" fill="none" xmlns="http://www.w3.org/2000/svg">
<g clip-path="url(#clip0_39_173)">
<path d="M356.67 491.482H255.702C244.56 491.482 235.528 500.515 235.528 511.657C235.528 522.799 244.56 531.831 255.702 531.831H356.67C367.812 531.831 376.844 522.799 376.844 511.657C376.844 500.515 367.812 491.482 356.67 491.482Z" fill="white"/>
<path d="M356.671 381.195H177.193C166.051 381.195 157.019 390.227 157.019 401.369C157.019 412.511 166.051 421.543 177.193 421.543H356.671C367.813 421.543 376.845 412.511 376.845 401.369C376.845 390.227 367.813 381.195 356.671 381.195Z" fill="white"/>
<path d="M356.67 270.908H98.6831C87.5411 270.908 78.5088 279.941 78.5088 291.083C78.5088 302.224 87.5411 311.257 98.6831 311.257H356.67C367.811 311.257 376.844 302.224 376.844 291.083C376.844 279.941 367.811 270.908 356.67 270.908Z" fill="white"/>
<path d="M356.67 160.622H20.1743C9.03234 160.622 0 169.654 0 180.796C0 191.938 9.03234 200.971 20.1743 200.971H356.67C367.812 200.971 376.844 191.938 376.844 180.796C376.844 169.654 367.812 160.622 356.67 160.622Z" fill="white"/>
</g>
<g clip-path="url(#clip1_39_173)">
<path d="M466.422 185.334C466.422 108.566 528.655 46.3335 605.422 46.3335H929.755C1006.52 46.3335 1068.76 108.566 1068.76 185.334V509.667C1068.76 586.435 1006.52 648.667 929.755 648.667H605.422C528.655 648.667 466.422 586.435 466.422 509.667V185.334Z" stroke="white" stroke-width="91"/>
<path d="M738.204 165.609C743.446 135.028 787.256 134.716 792.933 165.22L838.905 412.203C841.413 425.677 833.731 438.965 820.804 443.515L774.1 459.948C767.892 462.135 761.105 462.042 754.952 459.695L713.248 443.762C700.847 439.027 693.525 426.18 695.769 413.096L738.204 165.609Z" fill="white" stroke="white" stroke-width="44"/>
</g>
<defs>
<clipPath id="clip0_39_173">
<rect width="376.844" height="373.756" fill="white" transform="translate(0 160.622)"/>
</clipPath>
<clipPath id="clip1_39_173">
<rect width="695" height="695" fill="white" transform="translate(420.089)"/>
</clipPath>
</defs>
</svg>
