<svg width="2014" height="877" viewBox="0 0 2014 877" fill="none" xmlns="http://www.w3.org/2000/svg">
<path d="M928.81 235.335H1881.68C1947.95 235.335 2001.68 289.061 2001.68 355.335V745C2001.68 811.274 1947.95 865 1881.68 865H571.732C505.458 865 451.732 811.274 451.732 745V354.754" stroke="black" stroke-width="24" stroke-linecap="round" stroke-linejoin="round"/>
<path d="M667.364 724.534C639.249 724.534 618.667 718.088 605.619 705.195C592.726 692.302 586.28 671.876 586.28 643.916C586.28 641.12 587.212 638.79 589.076 636.926C590.94 635.062 593.27 634.13 596.066 634.13C598.862 634.13 601.192 635.062 603.056 636.926C604.92 638.79 605.852 641.12 605.852 643.916C605.852 666.439 610.357 682.283 619.366 691.448C628.531 700.457 644.53 704.962 667.364 704.962H734.468C757.302 704.962 773.224 700.457 782.233 691.448C791.398 682.283 795.98 666.439 795.98 643.916C795.98 621.237 791.398 605.393 782.233 596.384C773.224 587.375 757.302 582.87 734.468 582.87H668.762C642.045 582.87 622.55 576.812 610.279 564.696C598.008 552.425 591.872 533.008 591.872 506.446C591.872 479.884 597.93 460.545 610.046 448.429C622.317 436.158 641.734 430.022 668.296 430.022H736.798C763.36 430.022 782.699 436.08 794.815 448.196C807.086 460.312 813.222 479.573 813.222 505.98C813.222 508.776 812.29 511.106 810.426 512.97C808.562 514.834 806.232 515.766 803.436 515.766C800.64 515.766 798.31 514.834 796.446 512.97C794.582 511.106 793.65 508.776 793.65 505.98C793.65 485.165 789.378 470.564 780.835 462.176C772.447 453.788 757.768 449.594 736.798 449.594H668.296C647.326 449.594 632.569 453.866 624.026 462.409C615.638 470.797 611.444 485.476 611.444 506.446C611.444 527.416 615.716 542.173 624.259 550.716C632.802 559.104 647.637 563.298 668.762 563.298H734.468C762.739 563.298 783.32 569.744 796.213 582.637C809.106 595.53 815.552 615.956 815.552 643.916C815.552 671.876 809.106 692.302 796.213 705.195C783.32 718.088 762.739 724.534 734.468 724.534H667.364ZM897.728 725C891.204 725 887.942 721.738 887.942 715.214V439.808C887.942 433.284 891.204 430.022 897.728 430.022H1006.77C1032.71 430.022 1052.21 436.624 1065.26 449.827C1078.46 462.875 1085.06 482.369 1085.06 508.31V522.29C1085.06 548.075 1078.46 567.57 1065.26 580.773C1052.21 593.976 1032.71 600.578 1006.77 600.578H907.514V715.214C907.514 721.738 904.252 725 897.728 725ZM907.514 581.006H1006.77C1027.12 581.006 1041.96 576.268 1051.28 566.793C1060.75 557.318 1065.49 542.483 1065.49 522.29V508.31C1065.49 487.961 1060.75 473.127 1051.28 463.807C1041.96 454.332 1027.12 449.594 1006.77 449.594H907.514V581.006ZM1079.65 724.068C1073.91 721.272 1072.2 716.923 1074.53 711.02L1191.49 437.478C1193.36 432.507 1197.09 430.022 1202.68 430.022H1204.08C1209.2 430.022 1212.93 432.507 1215.26 437.478L1331.76 711.02C1334.4 716.923 1332.69 721.272 1326.63 724.068C1320.73 726.553 1316.54 724.845 1314.05 718.942L1281.2 641.586H1126.02L1092.7 718.942C1090.22 724.845 1085.87 726.553 1079.65 724.068ZM1134.41 622.014H1272.81L1204.08 460.778L1134.41 622.014ZM1462.67 725C1429.58 725 1405.5 717.544 1390.44 702.632C1375.52 687.565 1368.07 663.488 1368.07 630.402V524.62C1368.07 491.223 1375.52 467.147 1390.44 452.39C1405.5 437.478 1429.42 430.022 1462.2 430.022H1518.59C1547.01 430.022 1567.98 435.925 1581.5 447.73C1595.01 459.535 1602.31 478.641 1603.4 505.048C1603.71 508.31 1603.01 510.873 1601.3 512.737C1599.75 514.446 1597.34 515.3 1594.08 515.3C1587.71 515.3 1584.29 512.038 1583.83 505.514C1582.89 484.544 1577.46 470.02 1567.52 461.943C1557.73 453.71 1541.42 449.594 1518.59 449.594H1462.2C1443.87 449.594 1429.27 452.002 1418.4 456.817C1407.52 461.632 1399.68 469.554 1394.86 480.583C1390.05 491.456 1387.64 506.135 1387.64 524.62V630.402C1387.64 648.731 1390.05 663.41 1394.86 674.439C1399.83 685.312 1407.76 693.234 1418.63 698.205C1429.66 703.02 1444.34 705.428 1462.67 705.428H1518.59C1541.42 705.428 1557.73 701.389 1567.52 693.312C1577.46 685.079 1582.89 670.478 1583.83 649.508C1584.29 642.984 1587.71 639.722 1594.08 639.722C1597.34 639.722 1599.75 640.654 1601.3 642.518C1603.01 644.227 1603.71 646.712 1603.4 649.974C1602.31 676.225 1595.01 695.331 1581.5 707.292C1567.98 719.097 1547.01 725 1518.59 725H1462.67ZM1680.88 725C1674.36 725 1671.1 721.738 1671.1 715.214V439.808C1671.1 433.284 1674.36 430.022 1680.88 430.022H1857.96C1864.49 430.022 1867.75 433.284 1867.75 439.808C1867.75 446.332 1864.49 449.594 1857.96 449.594H1690.67V565.628H1802.97C1809.5 565.628 1812.76 568.89 1812.76 575.414C1812.76 581.938 1809.5 585.2 1802.97 585.2H1690.67V705.428H1857.96C1864.49 705.428 1867.75 708.69 1867.75 715.214C1867.75 721.738 1864.49 725 1857.96 725H1680.88Z" fill="black"/>
<path d="M325.815 299C306.802 299 292.903 294.608 284.12 285.825C275.337 277.042 270.945 263.195 270.945 244.285V168.8H252.5C247.023 168.8 244.285 166.062 244.285 160.585C244.285 155.212 247.023 152.525 252.5 152.525H270.945V119.2C270.945 113.723 273.632 110.985 279.005 110.985C284.482 110.985 287.22 113.723 287.22 119.2V152.525H326.125C331.498 152.525 334.185 155.212 334.185 160.585C334.185 166.062 331.498 168.8 326.125 168.8H287.22V244.285C287.22 258.752 290.01 268.775 295.59 274.355C301.273 279.935 311.348 282.725 325.815 282.725C328.812 282.725 330.93 283.397 332.17 284.74C333.513 286.083 334.185 288.098 334.185 290.785C334.185 296.262 331.395 299 325.815 299ZM380.654 299C375.177 299 372.439 296.262 372.439 290.785V160.585C372.439 155.212 375.177 152.525 380.654 152.525C386.027 152.525 388.714 155.212 388.714 160.585V290.785C388.714 296.262 386.027 299 380.654 299ZM377.244 124.16C370.114 124.16 366.549 120.492 366.549 113.155V106.18C366.549 99.1533 370.114 95.64 377.244 95.64H384.064C391.09 95.64 394.604 99.1533 394.604 106.18V113.155C394.604 120.492 391.09 124.16 384.064 124.16H377.244ZM606.103 152.215C622.74 152.215 634.623 156.452 641.753 164.925C648.987 173.398 652.603 187.4 652.603 206.93V291.095C652.603 296.468 649.917 299.155 644.543 299.155C639.067 299.155 636.328 296.468 636.328 291.095V206.93C636.328 193.29 634.003 183.473 629.353 177.48C624.703 171.487 616.953 168.49 606.103 168.49H593.238C579.702 168.49 569.988 171.487 564.098 177.48C558.312 183.473 555.418 193.29 555.418 206.93V291.095C555.418 296.468 552.732 299.155 547.358 299.155C541.882 299.155 539.143 296.468 539.143 291.095V206.93C539.143 193.29 536.818 183.473 532.168 177.48C527.518 171.487 519.768 168.49 508.918 168.49H496.053C482.517 168.49 472.803 171.487 466.913 177.48C461.127 183.473 458.233 193.29 458.233 206.93V291.095C458.233 296.468 455.547 299.155 450.173 299.155C444.697 299.155 441.958 296.468 441.958 291.095V160.585C441.958 155.212 444.697 152.525 450.173 152.525C455.547 152.525 458.233 155.212 458.233 160.585V172.675C462.78 165.338 468.153 160.12 474.353 157.02C480.657 153.817 488.613 152.215 498.223 152.215H508.918C519.768 152.215 528.448 154.127 534.958 157.95C541.572 161.67 546.79 167.818 550.613 176.395C555.16 167.818 560.74 161.67 567.353 157.95C573.967 154.127 582.595 152.215 593.238 152.215H606.103ZM715.199 232.04V243.355C715.199 257.925 718.093 268.155 723.879 274.045C729.769 279.832 740.103 282.725 754.879 282.725H780.299C793.319 282.725 802.774 281.072 808.664 277.765C814.658 274.355 818.223 268.517 819.359 260.25C819.773 257.667 820.599 255.703 821.839 254.36C823.183 253.017 825.198 252.345 827.884 252.345C830.571 252.345 832.586 253.12 833.929 254.67C835.376 256.117 835.944 258.183 835.634 260.87C834.291 273.89 829.073 283.5 819.979 289.7C810.886 295.9 797.659 299 780.299 299H754.879C735.556 299 721.399 294.557 712.409 285.67C703.419 276.68 698.924 262.575 698.924 243.355V208.325C698.924 188.795 703.419 174.587 712.409 165.7C721.399 156.71 735.556 152.318 754.879 152.525H780.299C799.623 152.525 813.728 157.02 822.614 166.01C831.604 174.897 836.099 189.002 836.099 208.325V223.825C836.099 229.302 833.413 232.04 828.039 232.04H715.199ZM754.879 168.8C740.103 168.593 729.769 171.435 723.879 177.325C718.093 183.112 715.199 193.445 715.199 208.325V215.765H819.824V208.325C819.824 193.548 816.931 183.267 811.144 177.48C805.358 171.693 795.076 168.8 780.299 168.8H754.879Z" fill="black"/>
<rect x="130.625" y="249.113" width="78.375" height="13.0625" rx="6.53125" fill="black"/>
<rect x="87.0833" y="213.408" width="121.917" height="13.0625" rx="6.53125" fill="black"/>
<rect x="43.5417" y="177.704" width="165.458" height="13.0625" rx="6.53125" fill="black"/>
<rect y="142" width="209" height="13.0625" rx="6.53125" fill="black"/>
</svg>
